<?xml version="1.0" encoding="UTF-8" standalone="no"?><!-- Generator: Gravit.io --><svg xmlns="http://www.w3.org/2000/svg" xmlns:xlink="http://www.w3.org/1999/xlink" style="isolation:isolate" viewBox="0 0 511.999 511.999" width="511.999pt" height="511.999pt"><defs><clipPath id="_clipPath_VV1tGbv6iQsRpBhyep0G2oKXWvXyVef3"><rect width="511.999" height="511.999"/></clipPath></defs><g clip-path="url(#_clipPath_VV1tGbv6iQsRpBhyep0G2oKXWvXyVef3)"><g><g><path d=" M 508.745 246.041 C 504.171 239.784 395.188 92.835 255.997 92.835 C 116.806 92.835 7.818 239.784 3.249 246.035 C -1.083 251.971 -1.083 260.022 3.249 265.958 C 7.818 272.215 116.806 419.164 255.997 419.164 C 395.188 419.164 504.171 272.214 508.745 265.963 C 513.083 260.028 513.083 251.971 508.745 246.041 Z  M 255.997 385.406 C 153.468 385.406 64.667 287.873 38.38 255.988 C 64.633 224.075 153.248 126.593 255.997 126.593 C 358.521 126.593 447.316 224.109 473.614 256.011 C 447.361 287.923 358.746 385.406 255.997 385.406 Z " fill="rgb(46,46,46)" fill-opacity="0.6"/></g></g><g><g><path d=" M 255.997 154.725 C 200.155 154.725 154.722 200.158 154.722 256 C 154.722 311.842 200.155 357.275 255.997 357.275 C 311.839 357.275 357.272 311.842 357.272 256 C 357.272 200.158 311.839 154.725 255.997 154.725 Z  M 255.997 323.516 C 218.767 323.516 188.481 293.229 188.481 256 C 188.481 218.771 218.768 188.484 255.997 188.484 C 293.226 188.484 323.513 218.771 323.513 256 C 323.513 293.229 293.227 323.516 255.997 323.516 Z " fill="rgb(46,46,46)" fill-opacity="0.6"/></g></g></g></svg>