<?xml version="1.0" encoding="UTF-8" standalone="no"?><!-- Generator: Gravit.io --><svg xmlns="http://www.w3.org/2000/svg" xmlns:xlink="http://www.w3.org/1999/xlink" style="isolation:isolate" viewBox="0 0 512 512" width="512pt" height="512pt"><defs><clipPath id="_clipPath_S6XPfdP7JSBfPNvysQWJZ1PliV6hEjCz"><rect width="512" height="512"/></clipPath></defs><g clip-path="url(#_clipPath_S6XPfdP7JSBfPNvysQWJZ1PliV6hEjCz)"><g><g><g><path d=" M 255.968 5.329 C 114.624 5.329 0 120.401 0 262.353 C 0 375.889 73.344 472.209 175.104 506.225 C 187.904 508.593 192.576 500.657 192.576 493.841 C 192.576 487.729 192.352 471.569 192.224 450.129 C 121.024 465.649 105.984 415.665 105.984 415.665 C 94.368 385.969 77.568 378.065 77.568 378.065 C 54.304 362.129 79.296 362.449 79.296 362.449 C 104.992 364.273 118.496 388.945 118.496 388.945 C 141.344 428.209 178.432 416.881 193.024 410.289 C 195.328 393.681 201.952 382.353 209.28 375.921 C 152.448 369.425 92.672 347.377 92.672 248.913 C 92.672 220.849 102.656 197.905 119.04 179.921 C 116.384 173.425 107.616 147.281 121.536 111.921 C 121.536 111.921 143.04 105.009 191.936 138.257 C 212.352 132.561 234.24 129.713 256.032 129.617 C 277.76 129.745 299.68 132.561 320.128 138.289 C 368.992 105.041 390.464 111.953 390.464 111.953 C 404.416 147.345 395.648 173.457 393.024 179.953 C 409.44 197.937 419.328 220.881 419.328 248.945 C 419.328 347.665 359.488 369.393 302.464 375.761 C 311.648 383.697 319.84 399.377 319.84 423.345 C 319.84 457.713 319.52 485.425 319.52 493.841 C 319.52 500.721 324.128 508.721 337.12 506.193 C 438.72 472.145 512 375.857 512 262.353 C 512 120.401 397.376 5.329 255.968 5.329 Z " fill="rgb(0,0,0)"/></g></g></g><g><g><g><path d=" M 256.032 5.329 C 397.376 5.329 512 120.401 512 262.353 C 512 375.889 438.656 472.209 336.896 506.225 C 324.096 508.593 319.424 500.657 319.424 493.841 C 319.424 487.729 319.648 471.569 319.776 450.129 C 390.976 465.649 406.016 415.665 406.016 415.665 C 417.632 385.969 434.432 378.065 434.432 378.065 C 457.696 362.129 432.704 362.449 432.704 362.449 C 407.008 364.273 393.504 388.945 393.504 388.945 C 370.656 428.209 333.568 416.881 318.976 410.289 C 316.672 393.681 310.048 382.353 302.72 375.921 C 359.552 369.425 419.328 347.377 419.328 248.913 C 419.328 220.849 409.344 197.905 392.96 179.921 C 395.616 173.425 404.384 147.281 390.464 111.921 C 390.464 111.921 368.96 105.009 320.064 138.257 C 299.648 132.561 277.76 129.713 255.968 129.617 C 234.24 129.745 212.32 132.561 191.872 138.289 C 143.008 105.041 121.536 111.953 121.536 111.953 C 107.584 147.345 116.352 173.457 118.976 179.953 C 102.56 197.937 92.672 220.881 92.672 248.945 C 92.672 347.665 152.512 369.393 209.536 375.761 C 200.352 383.697 192.16 399.377 192.16 423.345 C 192.16 457.713 192.48 485.425 192.48 493.841 C 192.48 500.721 187.872 508.721 174.88 506.193 C 73.28 472.145 0 375.857 0 262.353 C 0 120.401 114.624 5.329 256.032 5.329 Z " fill="rgb(0,0,0)"/></g></g></g><path d=" M 118 180 Q 144 148 193 137 Q 242 126 118 107 Q 101 173 118 180 Z " fill="rgb(0,0,0)" vector-effect="non-scaling-stroke" stroke-width="1" stroke="rgb(0,0,0)" stroke-linejoin="miter" stroke-linecap="square" stroke-miterlimit="3"/><path d=" M 393.5 180 Q 367.5 148 318.5 137 Q 269.5 126 393.5 107 Q 410.5 173 393.5 180 Z " fill="rgb(0,0,0)" vector-effect="non-scaling-stroke" stroke-width="1" stroke="rgb(0,0,0)" stroke-linejoin="miter" stroke-linecap="square" stroke-miterlimit="3"/><path d="M 147 230 L 155 230 C 165.486 230 174 238.514 174 249 L 174 249 C 174 259.486 165.486 268 155 268 L 147 268 C 136.514 268 128 259.486 128 249 L 128 249 C 128 238.514 136.514 230 147 230 Z" style="stroke:none;fill:#000000;stroke-miterlimit:10;"/><path d="M 358 230 L 366 230 C 376.486 230 385 238.514 385 249 L 385 249 C 385 259.486 376.486 268 366 268 L 358 268 C 347.514 268 339 259.486 339 249 L 339 249 C 339 238.514 347.514 230 358 230 Z" style="stroke:none;fill:#000000;stroke-miterlimit:10;"/></g></svg>